<svg xmlns="http://www.w3.org/2000/svg" width="503.859" height="268.141" viewBox="0 0 503.859 268.141"><g transform="translate(-0.011 -0.035)"><path d="M544.592,384.972q-.842,1.815-1.679,3.581-1.306,2.744-2.579,5.381c-.377.779-.755,1.544-1.123,2.308-4.161,8.5-8.047,16.021-11.347,22.206a35.425,35.425,0,0,1-30.877,18.726l-73.381.8h-.774l-6.29.068-5.381.058-16.5.179h-.668l-8.4.092h-.256l-51.776.561-46.216.484-5.376.058-33.388.363h-.039l-21.654.232h-.232l-68.47.74-20.483.223a42.569,42.569,0,0,1-5.221-.261h0c-.59-.068-1.181-.145-1.766-.237A42.282,42.282,0,0,1,105.9,427.205a96.557,96.557,0,0,1-19.53-33.272q-.934-2.657-1.742-5.381c-14.909-50.4,3.266-115.416,35.977-158.927q2.057-2.729,4.181-5.323l.034-.039c10.06-12.349,21.339-22.665,33.354-30,21.291-13.021,44.88-16.689,68.083-5.758a152.3,152.3,0,0,0,55.729,14.783c1.8.116,3.59.2,5.376.256,40.758,1.282,78.956-13.4,123.812-22.883,1.786-.377,3.576-.75,5.381-1.1,32-6.368,67.5-9.726,109.711-2.666a91.5,91.5,0,0,1,12.949,3.1q2.792.9,5.381,1.936c20.149,8.2,31.138,23.343,35.808,42.321q.663,2.642,1.147,5.376C589.826,275.27,565.578,340.023,544.592,384.972Z" transform="translate(-79.34 -172.91)" fill="#f2f2f2"/><path d="M325.467,395.59a46.071,46.071,0,0,1-.9,5.381H369.9V395.59ZM287.6,425.982l5.376-.044V412.647c-1.844-.082-3.639-.165-5.376-.252ZM174.9,395.59v5.381h96.051V395.59ZM586.044,231.3H550.236V188.966q-2.589-1.05-5.381-1.936V231.3H422.171V186.58c-1.8.353-3.6.726-5.381,1.1V231.3H292.978V210.566c-1.786-.053-3.581-.14-5.376-.256V231.3H163.791v-30c-12.015,7.336-23.294,17.652-33.354,30H130.4v.039q-2.129,2.613-4.181,5.323H130.4V395.59H90.24q.8,2.724,1.742,5.381H130.4v45.3a42.1,42.1,0,0,0,5.9,1.35c.585.092,1.176.169,1.766.237h0a42.569,42.569,0,0,0,5.221.261l20.483-.223V400.961H287.6v45.587l5.376-.058V400.97H416.79v44.208l5.381-.058V400.97h122.66v2.308c.368-.765.745-1.529,1.123-2.308q1.273-2.637,2.579-5.381.837-1.761,1.679-3.581V236.682h36.979Q586.7,233.928,586.044,231.3ZM163.791,395.59V236.662H287.6V395.59Zm129.2,0V236.662h123.8V395.59Zm251.853,0H422.171V236.662h122.66Z" transform="translate(-84.96 -179.947)" opacity="0.1"/><path d="M472.392,518.941v6.29l-73.512.677-.784.015-27.94.256-.668.01-8.492.073h-.252l-51.766.479L224,527.53h-.073l-21.605.2-.232,0-96,.881V521.36l22.573-13.549,45.292-.377.968,0,.319,0,.968-.015,21.746-.179.973,0,.31,0,.968,0,6.973-.058.184,0,17.2-.145h.14l134.23-1.132,3.286-.024h.329l2.507-.024,18.218-.15.968-.015.9-.01h.465l5.666-.044,1.123-.015,1.5-.01,4.718-.044,7.486-.063.968-.01,1.684-.01h.315l36.151-.31Z" transform="translate(-54.749 -260.697)" fill="#65617d"/><path d="M472.392,518.941v6.29l-73.512.677-.784.015-27.94.256-.668.01-8.492.073h-.252l-51.766.479L224,527.53h-.073l-21.605.2-.232,0-96,.881V521.36l22.573-13.549,45.292-.377.968,0,.319,0,.968-.015,21.746-.179.973,0,.31,0,.968,0,6.973-.058.184,0,17.2-.145h.14l134.23-1.132,3.286-.024h.329l2.507-.024,18.218-.15.968-.015.9-.01h.465l5.666-.044,1.123-.015,1.5-.01,4.718-.044,7.486-.063.968-.01,1.684-.01h.315l36.151-.31Z" transform="translate(-54.749 -260.697)" opacity="0.2"/><path d="M351.095,656.57v11.85A2.966,2.966,0,0,1,349.4,671.1a2.9,2.9,0,0,1-1.21.29l-16.888.358a2.9,2.9,0,0,1-1.306-.276,2.961,2.961,0,0,1-1.727-2.7V656.57Z" transform="translate(-207.811 -422.516)" fill="#3f3d56"/><path d="M351.095,656.57v11.85A2.966,2.966,0,0,1,349.4,671.1a2.9,2.9,0,0,1-1.21.29l-16.888.358a2.9,2.9,0,0,1-1.306-.276,2.961,2.961,0,0,1-1.727-2.7V656.57Z" transform="translate(-207.811 -422.516)" opacity="0.1"/><path d="M353.095,656.57v11.85A2.966,2.966,0,0,1,351.4,671.1a2.9,2.9,0,0,1-1.21.29l-16.888.358a2.9,2.9,0,0,1-1.307-.276,2.961,2.961,0,0,1-1.727-2.7V656.57Z" transform="translate(-208.843 -422.516)" fill="#3f3d56"/><rect width="22.825" height="15.242" transform="translate(329.493 234.049)" fill="#3f3d56"/><rect width="22.825" height="15.242" transform="translate(329.493 234.049)" opacity="0.1"/><rect width="22.825" height="15.242" transform="translate(328.525 234.049)" fill="#3f3d56"/><path d="M273.745,483.65v2.4l-22.825.61V483.65Z" transform="translate(-129.498 -249.601)" opacity="0.1"/><path d="M357.725,483.231v81.39a1.936,1.936,0,0,1-1.863,1.911L263.126,569H263.1a1.936,1.936,0,0,1-1.911-1.911V483.231a1.936,1.936,0,0,1,1.911-1.911h92.712A1.936,1.936,0,0,1,357.725,483.231Z" transform="translate(-173.19 -332.067)" fill="#65617d"/><path d="M263.126,481.32V569H263.1a1.936,1.936,0,0,1-1.911-1.911V483.231a1.936,1.936,0,0,1,1.911-1.911Z" transform="translate(-173.19 -332.067)" opacity="0.1"/><path d="M194.59,319.15h85.89v71.736l-85.89,1.936Z" transform="translate(-100.425 -164.7)" fill="#4b7bec"/><path d="M701.745,483.65v3.1l-22.825-.61V483.65Z" transform="translate(-350.395 -249.601)" opacity="0.1"/><path d="M764.7,483.231v83.857A1.936,1.936,0,0,1,762.769,569h0l-92.756-2.468a1.935,1.935,0,0,1-1.863-1.911v-81.39a1.936,1.936,0,0,1,1.911-1.911h92.713A1.936,1.936,0,0,1,764.7,483.231Z" transform="translate(-383.228 -332.067)" fill="#65617d"/><path d="M865.626,483.231v83.857A1.936,1.936,0,0,1,863.69,569h0V481.32h0a1.936,1.936,0,0,1,1.936,1.911Z" transform="translate(-484.149 -332.067)" opacity="0.1"/><path d="M683.98,319.15H598.09v71.736l85.89,1.936Z" transform="translate(-308.677 -164.7)" fill="#4b7bec"/><path d="M560.225,483.231v81.39a1.935,1.935,0,0,1-1.863,1.911L465.626,569h0a1.936,1.936,0,0,1-1.936-1.911V483.231a1.936,1.936,0,0,1,1.911-1.911h92.713A1.936,1.936,0,0,1,560.225,483.231Z" transform="translate(-277.703 -332.067)" fill="#65617d"/><path d="M397.09,319.15h85.89v71.736l-85.89,1.936Z" transform="translate(-204.938 -164.7)" fill="#4b7bec"/><path d="M472.392,533.65v6.291l-73.512.677-.784.015-27.94.256-.668.01-8.492.073h-.252l-51.766.479L224,542.239h-.073l-21.605.2-.232,0-96,.881v-7.258l97.992-.644h.232l19.834-.135h.092l136.978-.9h.14l.082,0h.227l2.318-.014h.706l36.045-.242,2.129-.01.474,0Z" transform="translate(-54.749 -275.406)" opacity="0.1"/><circle cx="24.838" cy="24.838" r="24.838" transform="translate(210.946 119.451)" fill="#fbbebe"/><path d="M571.16,493.283s-48.147,5.807-43.55,0c1.665-2.1,2.124-8.323,2.032-15.412-.029-2.153-.106-4.384-.218-6.605-.532-10.646-1.815-21.049-1.815-21.049s42.1-19.839,37.259-4.113c-1.936,6.353-1.3,15.276.169,23.652.431,2.444.929,4.839,1.452,7.113a166.788,166.788,0,0,0,4.669,16.413Z" transform="translate(-310.533 -310.763)" fill="#fbbebe"/><path d="M512.022,542.379c5.57-1.031,11.468-2.9,16.709-.745,1.379.566,2.647,1.394,4.06,1.868s2.961.59,4.432.924c5.168,1.171,9.358,5.1,12.049,9.678s4.084,9.745,5.449,14.865l3.339,12.5c2.9,10.863,5.807,21.818,6.479,33.049a1179.486,1179.486,0,0,1-121.378.692c2.632-5,5.323-10.312,5.1-15.968s-3.479-11.236-2.3-16.81c.75-3.552,3.179-6.479,4.665-9.784,4.234-9.445.939-22.157,8.381-29.348,3.349-3.232,8.226-4.457,12.886-4.3,5.942.2,12.025,2.052,17.9,2.957C497.321,543.095,504.435,543.772,512.022,542.379Z" transform="translate(-267.107 -361.828)" fill="#ff6584"/><path d="M568.039,651.163l-.048.692v.048l-.082,1.113-.644,8.957-.779,10.791-.223,3.039-.484,6.5v.082L514,682.872l-84.966.919v.406h-.068v-.542l.218-6.949.416-13.578.358-11.512.034-1.147a5.1,5.1,0,0,1,5.526-4.921c2.284.194,5.25.431,8.8.682l1.452.106c20.483,1.423,58.337,3.261,96.535.968.8-.044,1.611-.092,2.419-.15,5.923-.373,11.841-.852,17.7-1.452a5.1,5.1,0,0,1,5.613,5.434Z" transform="translate(-259.783 -416.819)" opacity="0.1"/><path d="M429.08,686.278v-.406l84.98-.924,51.776-.484h.145v-.082l.484-6.5.208-2.9.794-10.941.624-8.662v-.213a5.141,5.141,0,0,0-.053-1.2.146.146,0,0,0,0-.048,5.027,5.027,0,0,0-.968-2.245,5.1,5.1,0,0,0-4.558-1.936c-5.86.6-11.778,1.079-17.7,1.452-.808.058-1.616.106-2.419.15-38.2,2.269-76.052.431-96.535-.968l-1.452-.106c-3.547-.252-6.513-.484-8.8-.682a5.1,5.1,0,0,0-5.439,4.128,5.315,5.315,0,0,0-.087.794l-.329,10.723-.45,13.583-.213,6.949v.542Z" transform="translate(-259.84 -418.899)" fill="#3f3d56"/><path d="M568.256,660.515l-.6,7.418-.886,11.057-.223,2.768-.484,6.2-.029.31v.082h0l-.073.716.053-.716h-.14l-51.776.484-84.995.919v-.135l.237-6.949.484-13.578.31-9.024a3.077,3.077,0,0,1,1.481-2.54,3.024,3.024,0,0,1,1.829-.436c1.016.082,2.265.179,3.721.286,2.366.174,5.284.377,8.681.59,6.291.4,14.183.823,23.227,1.171,25.162.968,59.131,1.292,91.4-1.534,1.452-.126,2.952-.266,4.418-.406a3.029,3.029,0,0,1,1.684.319,2.5,2.5,0,0,1,.416.261,2.971,2.971,0,0,1,.968,1.19,1.729,1.729,0,0,1,.121.3A3.039,3.039,0,0,1,568.256,660.515Z" transform="translate(-259.856 -422.778)" opacity="0.1"/><path d="M353.095,677.87v1.544a2.966,2.966,0,0,1-1.694,2.681l-19.4.373a2.961,2.961,0,0,1-1.727-2.7V678.32Z" transform="translate(-208.843 -433.509)" opacity="0.1"/><path d="M271.623,511.1l-25.283.484v-4.2l25.283-.484Z" transform="translate(-127.134 -261.6)" fill="#3f3d56"/><path d="M271.623,511.1l-25.283.484v-4.2l25.283-.484Z" transform="translate(-127.134 -261.6)" opacity="0.1"/><path d="M273.623,511.1l-25.283.484v-4.2l25.283-.484Z" transform="translate(-128.166 -261.6)" fill="#3f3d56"/><path d="M758.56,679.87v1.544a2.966,2.966,0,0,0,1.694,2.681l19.4.373a2.961,2.961,0,0,0,1.727-2.7V680.32Z" transform="translate(-429.89 -434.541)" opacity="0.1"/><path d="M678.72,513.1l25.283.484v-4.2L678.72,508.9Z" transform="translate(-350.292 -262.633)" opacity="0.1"/><path d="M676.72,513.1l25.283.484v-4.2L676.72,508.9Z" transform="translate(-349.259 -262.633)" fill="#3f3d56"/><path d="M515.116,442.012c.039,3.387-1.529,6.581-2.86,9.712a79.111,79.111,0,0,0-6.126,36.151c.353,5.323,1.248,10.646.353,15.92s-4.079,10.534-9.194,12.049a26.025,26.025,0,0,0,27.949-1.287c4.253-3.1,7.423-7.418,10.525-11.667a47.353,47.353,0,0,1-6.441,21.654,50.048,50.048,0,0,0,35.57-19.752,25.91,25.91,0,0,0,4.7-9.305c1.5-6.29-.59-12.828-2.182-19.113a128.743,128.743,0,0,1-2.986-15.968,14.209,14.209,0,0,1,.048-5.178c.484-1.969,1.776-3.634,2.729-5.429,2.71-5.1,2.773-11.275,1.384-16.878s-4.108-10.771-6.8-15.876c-2.158-4.094-4.5-8.376-8.449-10.781a25.7,25.7,0,0,0-8.168-2.729l-12.276-2.628a22.679,22.679,0,0,0-8.163-.731c-4.582.716-7.81,4.026-10.645,7.423-2.221,2.642-7.65,7.6-8.033,11.062-.348,3.189,2.468,8.531,2.947,11.894.629,4.355,1.074,2.9,3.532,5.574A8.594,8.594,0,0,1,515.116,442.012Z" transform="translate(-295.044 -290.112)" fill="#3f3d56"/><path d="M327.937,505.984h-48.2a.242.242,0,0,1,0-.484h48.2a.242.242,0,0,1,0,.484Z" transform="translate(-182.64 -344.546)" fill="#f2f2f2"/><path d="M327.937,514.984h-48.2a.242.242,0,0,1,0-.484h48.2a.242.242,0,0,1,0,.484Z" transform="translate(-182.64 -349.191)" fill="#f2f2f2"/><path d="M327.937,523.984h-48.2a.242.242,0,0,1,0-.484h48.2a.242.242,0,0,1,0,.484Z" transform="translate(-182.64 -353.836)" fill="#f2f2f2"/></g></svg>