<svg xmlns="http://www.w3.org/2000/svg" width="28" height="28" viewBox="0 0 28 28"><g transform="translate(-80 -80)"><path d="M83.818,80A3.839,3.839,0,0,0,80,83.818v20.364A3.838,3.838,0,0,0,83.818,108h20.364A3.838,3.838,0,0,0,108,104.182V83.818A3.838,3.838,0,0,0,104.182,80Zm16.545,3.818h3.818v3.818h-3.818ZM94,88.909A5.091,5.091,0,1,1,88.909,94,5.069,5.069,0,0,1,94,88.909ZM82.545,91.455H86.8a7.636,7.636,0,1,0,14.4,0h4.256v12.727a1.25,1.25,0,0,1-1.273,1.273H83.818a1.25,1.25,0,0,1-1.273-1.273Z" transform="translate(0 0)" fill="#fff"/></g></svg>